<svg width="122" height="121" viewBox="0 0 122 121" fill="none" xmlns="http://www.w3.org/2000/svg">
<g clip-path="url(#clip0_98_11527)">
<ellipse cx="61" cy="60.5" rx="61" ry="60.5" fill="#DAE3EA"/>
<path fill-rule="evenodd" clip-rule="evenodd" d="M72.6189 48.9762C72.6189 55.3431 67.4193 60.5 60.9998 60.5C54.5803 60.5 49.3808 55.3431 49.3808 48.9762C49.3808 42.6093 54.5803 37.4524 60.9998 37.4524C67.4193 37.4524 72.6189 42.6093 72.6189 48.9762ZM37.7617 77.7857C37.7617 70.1224 53.2441 66.2619 60.9998 66.2619C68.7555 66.2619 84.2379 70.1224 84.2379 77.7857V80.6667C84.2379 82.2512 82.9308 83.5476 81.3331 83.5476H40.6665C39.0689 83.5476 37.7617 82.2512 37.7617 80.6667V77.7857Z" fill="#94A3B1"/>
</g>
<defs>
<clipPath id="clip0_98_11527">
<rect width="122" height="121" fill="white"/>
</clipPath>
</defs>
</svg>
